<svg width="552" height="79" viewBox="0 0 552 79" fill="none" xmlns="http://www.w3.org/2000/svg">
<g clip-path="url(#clip0_761_201)">
<path d="M30.6074 78C24.5408 78 18.9741 76.6667 13.9074 74C8.84076 71.3333 4.97409 67.8333 2.30742 63.5L8.90742 56.8C10.4408 60.5333 13.2074 63.5667 17.2074 65.9C21.2074 68.1667 25.7741 69.3 30.9074 69.3C35.6408 69.3 39.4741 68.3333 42.4074 66.4C45.3408 64.4 46.8408 61.4 46.9074 57.4C46.9074 55.5333 46.5408 53.8333 45.8074 52.3C45.0741 50.7 44.2074 49.4 43.2074 48.4C42.2741 47.3333 40.8408 46.2667 38.9074 45.2C36.9741 44.1333 35.3408 43.3333 34.0074 42.8C32.7408 42.2667 30.8741 41.5333 28.4074 40.6C25.6074 39.5333 23.4741 38.7 22.0074 38.1C20.6074 37.5 18.7741 36.6 16.5074 35.4C14.3074 34.1333 12.6408 32.9 11.5074 31.7C10.3741 30.4333 9.34076 28.8333 8.40742 26.9C7.54076 24.9667 7.10742 22.8333 7.10742 20.5C7.10742 14.3667 9.30742 9.6 13.7074 6.2C18.1074 2.73333 23.6074 0.999995 30.2074 0.999995C35.8074 0.999995 40.7741 1.96666 45.1074 3.9C49.5074 5.76667 53.0074 8.26667 55.6074 11.4L49.5074 17.6C45.6408 11.8 39.2741 8.89999 30.4074 8.89999C26.3408 8.89999 22.9741 9.83333 20.3074 11.7C17.6408 13.5667 16.3074 16.2667 16.3074 19.8C16.3074 21.2 16.6074 22.5333 17.2074 23.8C17.8741 25 18.6408 26.0333 19.5074 26.9C20.3741 27.7667 21.6408 28.6667 23.3074 29.6C24.9741 30.4667 26.4408 31.1667 27.7074 31.7C28.9741 32.2333 30.6741 32.9 32.8074 33.7C34.9408 34.5667 36.5408 35.2333 37.6074 35.7C38.6741 36.1 40.1741 36.7667 42.1074 37.7C44.1074 38.6333 45.6074 39.4667 46.6074 40.2C47.6741 40.9333 48.9074 41.9333 50.3074 43.2C51.7074 44.4 52.7408 45.6333 53.4074 46.9C54.1408 48.1667 54.7741 49.6667 55.3074 51.4C55.8408 53.1333 56.1074 54.9667 56.1074 56.9C56.1074 63.8333 53.7408 69.1 49.0074 72.7C44.2741 76.2333 38.1408 78 30.6074 78ZM109.998 10.1H77.598V35.4H105.798V43.6H77.598V68.9H109.998V77H68.498V1.99999H109.998V10.1ZM122.697 77V1.99999H131.797V68.9H159.297V77H122.697ZM211.658 10.1H179.258V35.4H207.458V43.6H179.258V68.9H211.658V77H170.158V1.99999H211.658V10.1ZM258.557 78C248.024 78 239.291 74.3 232.357 66.9C225.424 59.4333 221.957 50.3 221.957 39.5C221.957 28.7 225.424 19.6 232.357 12.2C239.291 4.73333 248.024 0.999995 258.557 0.999995C266.091 0.999995 272.891 3.33333 278.957 7.99999V19C273.224 12.8 266.424 9.7 258.557 9.7C250.357 9.7 243.624 12.5667 238.357 18.3C233.157 23.9667 230.557 31.0333 230.557 39.5C230.557 47.9667 233.157 55.0667 238.357 60.8C243.624 66.4667 250.357 69.3 258.557 69.3C266.557 69.3 273.357 66.2 278.957 60V71C272.891 75.6667 266.091 78 258.557 78Z" fill="#333333"/>
<path d="M336.254 1.99999V10H315.754V77H306.654V10H286.154V1.99999H336.254Z" fill="url(#paint0_linear_761_201)"/>
<path d="M380.335 78C369.801 78 361.068 74.3 354.135 66.9C347.201 59.4333 343.735 50.3 343.735 39.5C343.735 28.7 347.201 19.6 354.135 12.2C361.068 4.73333 369.801 0.999995 380.335 0.999995C390.801 0.999995 399.501 4.73333 406.435 12.2C413.435 19.6 416.935 28.7 416.935 39.5C416.935 50.3 413.435 59.4333 406.435 66.9C399.501 74.3 390.801 78 380.335 78ZM360.135 60.8C365.401 66.4667 372.135 69.3 380.335 69.3C388.535 69.3 395.235 66.4667 400.435 60.8C405.635 55.0667 408.235 47.9667 408.235 39.5C408.235 31.0333 405.635 23.9667 400.435 18.3C395.235 12.5667 388.535 9.7 380.335 9.7C372.135 9.7 365.401 12.5667 360.135 18.3C354.935 23.9667 352.335 31.0333 352.335 39.5C352.335 47.9667 354.935 55.0667 360.135 60.8Z" fill="url(#paint1_linear_761_201)"/>
<path d="M463.733 78C453.2 78 444.467 74.3 437.533 66.9C430.6 59.4333 427.133 50.3 427.133 39.5C427.133 28.7 430.6 19.6 437.533 12.2C444.467 4.73333 453.2 0.999995 463.733 0.999995C474.2 0.999995 482.9 4.73333 489.833 12.2C496.833 19.6 500.333 28.7 500.333 39.5C500.333 50.3 496.833 59.4333 489.833 66.9C482.9 74.3 474.2 78 463.733 78ZM443.533 60.8C448.8 66.4667 455.533 69.3 463.733 69.3C471.933 69.3 478.633 66.4667 483.833 60.8C489.033 55.0667 491.633 47.9667 491.633 39.5C491.633 31.0333 489.033 23.9667 483.833 18.3C478.633 12.5667 471.933 9.7 463.733 9.7C455.533 9.7 448.8 12.5667 443.533 18.3C438.333 23.9667 435.733 31.0333 435.733 39.5C435.733 47.9667 438.333 55.0667 443.533 60.8Z" fill="url(#paint2_linear_761_201)"/>
<path d="M512.932 77V1.99999H522.032V68.9H549.532V77H512.932Z" fill="url(#paint3_linear_761_201)"/>
</g>
<defs>
<linearGradient id="paint0_linear_761_201" x1="275.5" y1="-12" x2="275.5" y2="108" gradientUnits="userSpaceOnUse">
<stop stop-color="#60A9F6"/>
<stop offset="1" stop-color="#80D672" stop-opacity="0"/>
</linearGradient>
<linearGradient id="paint1_linear_761_201" x1="381.333" y1="100.833" x2="382" y2="-25.6667" gradientUnits="userSpaceOnUse">
<stop stop-color="#60A9F6"/>
<stop offset="1" stop-color="#80D672" stop-opacity="0.5"/>
</linearGradient>
<linearGradient id="paint2_linear_761_201" x1="438.167" y1="-12" x2="513.167" y2="108" gradientUnits="userSpaceOnUse">
<stop stop-color="#60A9F6"/>
<stop offset="1" stop-color="#80D672" stop-opacity="0.5"/>
</linearGradient>
<linearGradient id="paint3_linear_761_201" x1="570.5" y1="104" x2="513.167" y2="-2.33332" gradientUnits="userSpaceOnUse">
<stop stop-color="#60A9F6"/>
<stop offset="1" stop-color="#80D672" stop-opacity="0.5"/>
</linearGradient>
<clipPath id="clip0_761_201">
<rect width="552" height="79" fill="white"/>
</clipPath>
</defs>
</svg>
