<svg width="120" height="24" viewBox="0 0 120 24" fill="none" xmlns="http://www.w3.org/2000/svg">
<path d="M19.6498 9.04L14.8098 8.62L12.9198 4.17C12.5798 3.36 11.4198 3.36 11.0798 4.17L9.18983 8.63L4.35983 9.04C3.47983 9.11 3.11983 10.21 3.78983 10.79L7.45983 13.97L6.35983 18.69C6.15983 19.55 7.08983 20.23 7.84983 19.77L11.9998 17.27L16.1498 19.78C16.9098 20.24 17.8398 19.56 17.6398 18.7L16.5398 13.97L20.2098 10.79C20.8798 10.21 20.5298 9.11 19.6498 9.04V9.04ZM11.9998 15.4L8.23983 17.67L9.23983 13.39L5.91983 10.51L10.2998 10.13L11.9998 6.1L13.7098 10.14L18.0898 10.52L14.7698 13.4L15.7698 17.68L11.9998 15.4Z" fill="#8D8D8D"/>
<path d="M43.6498 9.04L38.8098 8.62L36.9198 4.17C36.5798 3.36 35.4198 3.36 35.0798 4.17L33.1898 8.63L28.3598 9.04C27.4798 9.11 27.1198 10.21 27.7898 10.79L31.4598 13.97L30.3598 18.69C30.1598 19.55 31.0898 20.23 31.8498 19.77L35.9998 17.27L40.1498 19.78C40.9098 20.24 41.8398 19.56 41.6398 18.7L40.5398 13.97L44.2098 10.79C44.8798 10.21 44.5298 9.11 43.6498 9.04V9.04ZM35.9998 15.4L32.2398 17.67L33.2398 13.39L29.9198 10.51L34.2998 10.13L35.9998 6.1L37.7098 10.14L42.0898 10.52L38.7698 13.4L39.7698 17.68L35.9998 15.4Z" fill="#8D8D8D"/>
<path d="M115.65 9.04L110.81 8.62L108.92 4.17C108.58 3.36 107.42 3.36 107.08 4.17L105.19 8.63L100.36 9.04C99.4798 9.11 99.1198 10.21 99.7898 10.79L103.46 13.97L102.36 18.69C102.16 19.55 103.09 20.23 103.85 19.77L108 17.27L112.15 19.78C112.91 20.24 113.84 19.56 113.64 18.7L112.54 13.97L116.21 10.79C116.88 10.21 116.53 9.11 115.65 9.04V9.04ZM108 15.4L104.24 17.67L105.24 13.39L101.92 10.51L106.3 10.13L108 6.1L109.71 10.14L114.09 10.52L110.77 13.4L111.77 17.68L108 15.4Z" fill="#8D8D8D"/>
<path d="M67.6498 9.04L62.8098 8.62L60.9198 4.17C60.5798 3.36 59.4198 3.36 59.0798 4.17L57.1898 8.63L52.3598 9.04C51.4798 9.11 51.1198 10.21 51.7898 10.79L55.4598 13.97L54.3598 18.69C54.1598 19.55 55.0898 20.23 55.8498 19.77L59.9998 17.27L64.1498 19.78C64.9098 20.24 65.8398 19.56 65.6398 18.7L64.5398 13.97L68.2098 10.79C68.8798 10.21 68.5298 9.11 67.6498 9.04V9.04ZM59.9998 15.4L56.2398 17.67L57.2398 13.39L53.9198 10.51L58.2998 10.13L59.9998 6.1L61.7098 10.14L66.0898 10.52L62.7698 13.4L63.7698 17.68L59.9998 15.4Z" fill="#8D8D8D"/>
<path d="M91.6498 9.04L86.8098 8.62L84.9198 4.17C84.5798 3.36 83.4198 3.36 83.0798 4.17L81.1898 8.63L76.3598 9.04C75.4798 9.11 75.1198 10.21 75.7898 10.79L79.4598 13.97L78.3598 18.69C78.1598 19.55 79.0898 20.23 79.8498 19.77L83.9998 17.27L88.1498 19.78C88.9098 20.24 89.8398 19.56 89.6398 18.7L88.5398 13.97L92.2098 10.79C92.8798 10.21 92.5298 9.11 91.6498 9.04V9.04ZM83.9998 15.4L80.2398 17.67L81.2398 13.39L77.9198 10.51L82.2998 10.13L83.9998 6.1L85.7098 10.14L90.0898 10.52L86.7698 13.4L87.7698 17.68L83.9998 15.4Z" fill="#8D8D8D"/>
</svg>
