<svg width="38" height="33" viewBox="0 0 38 33" fill="none" xmlns="http://www.w3.org/2000/svg">
<path d="M10 1.07959C10.5967 1.07959 11.169 1.30508 11.591 1.70646C12.0129 2.10783 12.25 2.65222 12.25 3.21985V7.50037C12.25 8.068 12.0129 8.61238 11.591 9.01376C11.169 9.41514 10.5967 9.64063 10 9.64063C9.40326 9.64063 8.83097 9.41514 8.40901 9.01376C7.98705 8.61238 7.75 8.068 7.75 7.50037V3.21985C7.75 2.65222 7.98705 2.10783 8.40901 1.70646C8.83097 1.30508 9.40326 1.07959 10 1.07959ZM37 5.36011L12.25 5.36011L37 5.36011ZM7.75 5.36011H1H7.75ZM10 22.4822C10.5967 22.4822 11.169 22.7077 11.591 23.1091C12.0129 23.5104 12.25 24.0548 12.25 24.6224V28.903C12.25 29.4706 12.0129 30.015 11.591 30.4164C11.169 30.8177 10.5967 31.0432 10 31.0432C9.40326 31.0432 8.83097 30.8177 8.40901 30.4164C7.98705 30.015 7.75 29.4706 7.75 28.903V24.6224C7.75 24.0548 7.98705 23.5104 8.40901 23.1091C8.83097 22.7077 9.40326 22.4822 10 22.4822ZM37 26.7627L12.25 26.7627L37 26.7627ZM7.75 26.7627H1H7.75ZM28 11.7809C28.5967 11.7809 29.169 12.0064 29.591 12.4078C30.0129 12.8091 30.25 13.3535 30.25 13.9211V18.2017C30.25 18.7693 30.0129 19.3137 29.591 19.7151C29.169 20.1164 28.5967 20.3419 28 20.3419C27.4033 20.3419 26.831 20.1164 26.409 19.7151C25.9871 19.3137 25.75 18.7693 25.75 18.2017V13.9211C25.75 13.3535 25.9871 12.8091 26.409 12.4078C26.831 12.0064 27.4033 11.7809 28 11.7809ZM25.75 16.0614H1H25.75ZM37 16.0614H30.25H37Z" fill="#60A9F6" fill-opacity="0.12"/>
<path d="M37 5.36011L12.25 5.36011M7.75 5.36011H1M37 26.7627L12.25 26.7627M7.75 26.7627H1M25.75 16.0614H1M37 16.0614H30.25M10 1.07959C10.5967 1.07959 11.169 1.30508 11.591 1.70646C12.0129 2.10783 12.25 2.65222 12.25 3.21985V7.50037C12.25 8.068 12.0129 8.61238 11.591 9.01376C11.169 9.41514 10.5967 9.64063 10 9.64063C9.40326 9.64063 8.83097 9.41514 8.40901 9.01376C7.98705 8.61238 7.75 8.068 7.75 7.50037V3.21985C7.75 2.65222 7.98705 2.10783 8.40901 1.70646C8.83097 1.30508 9.40326 1.07959 10 1.07959ZM10 22.4822C10.5967 22.4822 11.169 22.7077 11.591 23.1091C12.0129 23.5104 12.25 24.0548 12.25 24.6224V28.903C12.25 29.4706 12.0129 30.015 11.591 30.4164C11.169 30.8177 10.5967 31.0432 10 31.0432C9.40326 31.0432 8.83097 30.8177 8.40901 30.4164C7.98705 30.015 7.75 29.4706 7.75 28.903V24.6224C7.75 24.0548 7.98705 23.5104 8.40901 23.1091C8.83097 22.7077 9.40326 22.4822 10 22.4822ZM28 11.7809C28.5967 11.7809 29.169 12.0064 29.591 12.4078C30.0129 12.8091 30.25 13.3535 30.25 13.9211V18.2017C30.25 18.7693 30.0129 19.3137 29.591 19.7151C29.169 20.1164 28.5967 20.3419 28 20.3419C27.4033 20.3419 26.831 20.1164 26.409 19.7151C25.9871 19.3137 25.75 18.7693 25.75 18.2017V13.9211C25.75 13.3535 25.9871 12.8091 26.409 12.4078C26.831 12.0064 27.4033 11.7809 28 11.7809Z" stroke="#595959" stroke-width="2" stroke-linecap="round" stroke-linejoin="round"/>
<rect x="7" width="6" height="11" rx="3" fill="#60A9F6"/>
<rect x="25" y="10" width="6" height="11" rx="3" fill="#60A9F6"/>
<rect x="7" y="21" width="6" height="11" rx="3" fill="#60A9F6"/>
</svg>
