<svg width="38" height="30" viewBox="0 0 38 30" fill="none" xmlns="http://www.w3.org/2000/svg">
<path d="M37 4.94449L12.25 4.94449M7.75 4.94449H1M37 24.6669H12.25M7.75 24.6669H1M25.75 14.8057L1 14.8057M37 14.8057H30.25M10 1C10.5967 1 11.169 1.20779 11.591 1.57766C12.0129 1.94753 12.25 2.44917 12.25 2.97225V6.91674C12.25 7.43981 12.0129 7.94145 11.591 8.31132C11.169 8.68119 10.5967 8.88898 10 8.88898C9.40326 8.88898 8.83097 8.68119 8.40901 8.31132C7.98705 7.94145 7.75 7.43981 7.75 6.91674V2.97225C7.75 2.44917 7.98705 1.94753 8.40901 1.57766C8.83097 1.20779 9.40326 1 10 1ZM10 20.7224C10.5967 20.7224 11.169 20.9302 11.591 21.3001C12.0129 21.67 12.25 22.1716 12.25 22.6947V26.6392C12.25 27.1623 12.0129 27.6639 11.591 28.0338C11.169 28.4036 10.5967 28.6114 10 28.6114C9.40326 28.6114 8.83097 28.4036 8.40901 28.0338C7.98705 27.6639 7.75 27.1623 7.75 26.6392V22.6947C7.75 22.1716 7.98705 21.67 8.40901 21.3001C8.83097 20.9302 9.40326 20.7224 10 20.7224ZM28 10.8612C28.5967 10.8612 29.169 11.069 29.591 11.4389C30.0129 11.8088 30.25 12.3104 30.25 12.8335V16.778C30.25 17.301 30.0129 17.8027 29.591 18.1725C29.169 18.5424 28.5967 18.7502 28 18.7502C27.4033 18.7502 26.831 18.5424 26.409 18.1725C25.9871 17.8027 25.75 17.301 25.75 16.778V12.8335C25.75 12.3104 25.9871 11.8088 26.409 11.4389C26.831 11.069 27.4033 10.8612 28 10.8612Z" stroke="#595959" stroke-width="2" stroke-linecap="round" stroke-linejoin="round"/>
</svg>
