<svg width="120" height="24" viewBox="0 0 120 24" fill="none" xmlns="http://www.w3.org/2000/svg">
<path d="M11.9998 17.27L16.1498 19.78C16.9098 20.24 17.8398 19.56 17.6398 18.7L16.5398 13.98L20.2098 10.8C20.8798 10.22 20.5198 9.12001 19.6398 9.05001L14.8098 8.64001L12.9198 4.18001C12.5798 3.37001 11.4198 3.37001 11.0798 4.18001L9.18983 8.63001L4.35983 9.04001C3.47983 9.11001 3.11983 10.21 3.78983 10.79L7.45983 13.97L6.35983 18.69C6.15983 19.55 7.08983 20.23 7.84983 19.77L11.9998 17.27V17.27Z" fill="#8D8D8D"/>
<path d="M35.9998 17.27L40.1498 19.78C40.9098 20.24 41.8398 19.56 41.6398 18.7L40.5398 13.98L44.2098 10.8C44.8798 10.22 44.5198 9.12001 43.6398 9.05001L38.8098 8.64001L36.9198 4.18001C36.5798 3.37001 35.4198 3.37001 35.0798 4.18001L33.1898 8.63001L28.3598 9.04001C27.4798 9.11001 27.1198 10.21 27.7898 10.79L31.4598 13.97L30.3598 18.69C30.1598 19.55 31.0898 20.23 31.8498 19.77L35.9998 17.27V17.27Z" fill="#8D8D8D"/>
<path d="M59.9998 17.27L64.1498 19.78C64.9098 20.24 65.8398 19.56 65.6398 18.7L64.5398 13.98L68.2098 10.8C68.8798 10.22 68.5198 9.12001 67.6398 9.05001L62.8098 8.64001L60.9198 4.18001C60.5798 3.37001 59.4198 3.37001 59.0798 4.18001L57.1898 8.63001L52.3598 9.04001C51.4798 9.11001 51.1198 10.21 51.7898 10.79L55.4598 13.97L54.3598 18.69C54.1598 19.55 55.0898 20.23 55.8498 19.77L59.9998 17.27V17.27Z" fill="#8D8D8D"/>
<path d="M83.9998 17.27L88.1498 19.78C88.9098 20.24 89.8398 19.56 89.6398 18.7L88.5398 13.98L92.2098 10.8C92.8798 10.22 92.5198 9.12001 91.6398 9.05001L86.8098 8.64001L84.9198 4.18001C84.5798 3.37001 83.4198 3.37001 83.0798 4.18001L81.1898 8.63001L76.3598 9.04001C75.4798 9.11001 75.1198 10.21 75.7898 10.79L79.4598 13.97L78.3598 18.69C78.1598 19.55 79.0898 20.23 79.8498 19.77L83.9998 17.27Z" fill="#8D8D8D"/>
<path d="M108 17.27L112.15 19.78C112.91 20.24 113.84 19.56 113.64 18.7L112.54 13.98L116.21 10.8C116.88 10.22 116.52 9.12001 115.64 9.05001L110.81 8.64001L108.92 4.18001C108.58 3.37001 107.42 3.37001 107.08 4.18001L105.19 8.63001L100.36 9.04001C99.4798 9.11001 99.1198 10.21 99.7898 10.79L103.46 13.97L102.36 18.69C102.16 19.55 103.09 20.23 103.85 19.77L108 17.27Z" fill="#8D8D8D"/>
</svg>
