<svg width="56" height="56" viewBox="0 0 56 56" fill="none" xmlns="http://www.w3.org/2000/svg">
<path d="M49.12 28.5C49.12 26.94 48.98 25.44 48.72 24H28V32.52H39.84C39.32 35.26 37.76 37.58 35.42 39.14V44.68H42.56C46.72 40.84 49.12 35.2 49.12 28.5V28.5Z" fill="#4285F4"/>
<path d="M27.9999 49.9992C33.9399 49.9992 38.9199 48.0392 42.5599 44.6792L35.4199 39.1392C33.4599 40.4592 30.9599 41.2592 27.9999 41.2592C22.2799 41.2592 17.4199 37.3992 15.6799 32.1992H8.35986V37.8792C11.9799 45.0592 19.3999 49.9992 27.9999 49.9992Z" fill="#34A853"/>
<path d="M15.68 32.1806C15.24 30.8606 14.98 29.4606 14.98 28.0006C14.98 26.5406 15.24 25.1406 15.68 23.8206V18.1406H8.36C6.86 21.1006 6 24.4406 6 28.0006C6 31.5606 6.86 34.9006 8.36 37.8606L14.06 33.4206L15.68 32.1806Z" fill="#FBBC05"/>
<path d="M27.9999 14.76C31.2399 14.76 34.1199 15.88 36.4199 18.04L42.7199 11.74C38.8999 8.18 33.9399 6 27.9999 6C19.3999 6 11.9799 10.94 8.35986 18.14L15.6799 23.82C17.4199 18.62 22.2799 14.76 27.9999 14.76Z" fill="#EA4335"/>
</svg>
