<svg width="56" height="56" viewBox="0 0 56 56" fill="none" xmlns="http://www.w3.org/2000/svg">
<path d="M27.7344 10C31.8448 10 35.6466 10.8 39.1396 12.4C42.6327 13.9999 45.3942 16.1756 47.4239 18.9269C49.4538 21.6781 50.4688 24.6791 50.4688 27.9299C50.4688 31.1806 49.4538 34.1858 47.4239 36.9456C45.3942 39.7053 42.6369 41.8852 39.1523 43.4852C35.6677 45.0851 31.8617 45.8852 27.7344 45.8852C26.4319 45.8852 25.0871 45.792 23.7 45.6058C17.6781 49.7877 14.4727 51.9041 14.0836 51.9548C13.8975 52.0226 13.7199 52.0141 13.5508 51.9295C13.4831 51.8787 13.4323 51.8109 13.3985 51.7262C13.3647 51.6416 13.3478 51.5655 13.3478 51.4977V51.3962C13.4493 50.7358 14.2189 47.9846 15.6567 43.1423C12.3921 41.517 9.79976 39.3625 7.87986 36.6789C5.95995 33.9954 5 31.079 5 27.9299C5 24.6791 6.01493 21.6781 8.04478 18.9269C10.0746 16.1756 12.8361 13.9999 16.3291 12.4C19.8222 10.8 23.6239 10 27.7344 10Z" fill="#351B1C"/>
</svg>
