<svg width="38" height="33" viewBox="0 0 38 33" fill="none" xmlns="http://www.w3.org/2000/svg">
<path d="M0.0953131 32.2V19.1C0.0953131 16.5 0.26198 14.3 0.595313 12.5C0.995313 10.7 1.72865 8.93333 2.79531 7.2C3.86198 5.46666 5.49531 4.06666 7.69531 3C9.89531 1.86666 12.662 1.03333 15.9953 0.499995V7.99999C11.3953 8.59999 9.02865 11.3333 8.89531 16.2H15.9953V32.2H0.0953131ZM21.2953 32.2V19.1C21.2953 16.5 21.462 14.3 21.7953 12.5C22.1953 10.7 22.9286 8.93333 23.9953 7.2C25.062 5.46666 26.6953 4.06666 28.8953 3C31.0953 1.86666 33.862 1.03333 37.1953 0.499995V7.99999C32.5953 8.59999 30.2286 11.3333 30.0953 16.2H37.1953V32.2H21.2953Z" fill="#8D8D8D"/>
</svg>
