<svg width="38" height="32" viewBox="0 0 38 32" fill="none" xmlns="http://www.w3.org/2000/svg">
<path d="M15.9953 0.499998V12.8C15.9953 18.0667 14.9286 22.2333 12.7953 25.3C10.662 28.3667 6.42865 30.4 0.0953129 31.4V23.9C4.69531 23.3 7.06198 20.5667 7.19531 15.7H0.0953129V0.499998H15.9953ZM37.0953 0.499998V12.8C37.0953 15.3333 36.8953 17.5333 36.4953 19.4C36.162 21.2 35.462 22.9667 34.3953 24.7C33.3286 26.4333 31.6953 27.8667 29.4953 29C27.2953 30.0667 24.5286 30.8667 21.1953 31.4V23.9C25.7953 23.3 28.162 20.5667 28.2953 15.7H21.1953V0.499998H37.0953Z" fill="#8D8D8D"/>
</svg>
