<svg width="552" height="79" viewBox="0 0 552 79" fill="none" xmlns="http://www.w3.org/2000/svg">
<g clip-path="url(#clip0_761_201)">
<path d="M26.9895 77C34.7895 77 41.1895 75.2 45.9895 71.6C50.7895 68 53.2895 62.6 53.2895 55.4C53.2895 52.6 52.6895 50.1 51.6895 47.7C50.6895 45.4 49.4895 43.5 48.1895 42C46.8895 40.6 44.9895 39.1 42.4895 37.6C39.8895 36.1 37.8895 35 36.2895 34.3C34.6895 33.6 32.4895 32.6 29.4895 31.4C27.3895 30.6 25.7895 29.9 24.6895 29.4C23.4895 29 22.1895 28.3 20.5895 27.4C18.9895 26.6 17.8895 25.8 17.0895 25C16.2895 24.3 15.5895 23.4 14.9895 22.3C14.3895 21.2 14.0895 20 14.0895 18.8C14.0895 16 15.1895 13.8 17.4895 12.2C19.7895 10.6 22.7895 9.79999 26.5895 9.79999C35.5895 9.79999 41.9895 12.8 45.8895 18.6L53.5895 10.9C47.2895 3.7 38.1895 -5.00679e-06 26.2895 -5.00679e-06C19.2895 -5.00679e-06 13.5895 1.8 9.08945 5.3C4.58945 8.9 2.38945 13.7 2.38945 19.7C2.38945 21.4 2.58945 23 3.08945 24.5C3.58945 26 4.18945 27.3 4.78945 28.3C5.38945 29.4 6.28945 30.5 7.68945 31.6C8.98945 32.7 10.0895 33.6 10.9895 34.2C11.8895 34.8 13.2895 35.6 15.1895 36.4C17.0895 37.3 18.4895 37.9 19.3895 38.3C20.2895 38.7 21.7895 39.2 23.9895 40C26.8895 41.2 29.1895 42.1 30.7895 42.8C32.3895 43.6 34.1895 44.6 36.1895 45.9C38.0895 47.2 39.4895 48.7 40.3895 50.3C41.1895 52 41.6895 53.9 41.6895 56C41.5895 59.4 40.2895 62 37.6895 63.6C35.0895 65.3 31.6895 66.1 27.3895 66.1C22.5895 66.1 18.1895 65.1 14.2895 62.9C10.3895 60.7 7.68945 57.8 6.18945 54.1L-2.11055 62.4C0.689454 66.8 4.78945 70.4 9.98945 73C15.1895 75.7 20.8895 77 26.9895 77ZM107.561 11.1V0.999994H64.8613V76H107.561V65.9H76.3613V43.6H103.361V33.4H76.3613V11.1H107.561ZM119.061 76H157.161V65.9H130.561V0.999994H119.061V76ZM211.468 11.1V0.999994H168.768V76H211.468V65.9H180.268V43.6H207.268V33.4H180.268V11.1H211.468ZM257.467 77C264.467 77 270.867 75 276.667 70.8V57.1C271.467 63.1 265.067 66.1 257.467 66.1C249.867 66.1 243.667 63.5 238.867 58.2C234.067 53 231.667 46.4 231.667 38.5C231.667 30.7 234.067 24.1 238.867 18.8C243.667 13.6 249.867 10.9 257.467 10.9C264.967 10.9 271.367 13.9 276.667 19.9V6.2C270.867 2.1 264.467 -5.00679e-06 257.467 -5.00679e-06C246.867 -5.00679e-06 238.167 3.79999 231.267 11.2C224.267 18.6 220.867 27.7 220.867 38.5C220.867 49.3 224.267 58.5 231.267 65.9C238.167 73.3 246.867 77 257.467 77Z" fill="#333333"/>
<path d="M336.496 0.999994H285.096V11.1H305.096V76H316.496V11.1H336.496V0.999994Z" fill="url(#paint0_linear_761_201)"/>
<path d="M381.588 77C391.988 77 400.688 73.3 407.688 65.9C414.688 58.5 418.188 49.3 418.188 38.5C418.188 27.7 414.688 18.6 407.688 11.2C400.688 3.79999 391.988 -5.00679e-06 381.588 -5.00679e-06C370.988 -5.00679e-06 362.288 3.79999 355.388 11.2C348.388 18.6 344.988 27.7 344.988 38.5C344.988 49.3 348.388 58.5 355.388 65.9C362.288 73.3 370.988 77 381.588 77ZM381.588 66.1C373.988 66.1 367.788 63.5 362.988 58.2C358.188 53 355.788 46.4 355.788 38.5C355.788 30.7 358.188 24.1 362.988 18.8C367.788 13.6 373.988 10.9 381.588 10.9C389.188 10.9 395.288 13.6 400.088 18.8C404.888 24.1 407.288 30.7 407.288 38.5C407.288 46.4 404.888 53 400.088 58.2C395.288 63.5 389.188 66.1 381.588 66.1Z" fill="url(#paint1_linear_761_201)"/>
<path d="M464.596 77C474.996 77 483.696 73.3 490.696 65.9C497.696 58.5 501.196 49.3 501.196 38.5C501.196 27.7 497.696 18.6 490.696 11.2C483.696 3.79999 474.996 -5.00679e-06 464.596 -5.00679e-06C453.996 -5.00679e-06 445.296 3.79999 438.396 11.2C431.396 18.6 427.996 27.7 427.996 38.5C427.996 49.3 431.396 58.5 438.396 65.9C445.296 73.3 453.996 77 464.596 77ZM464.596 66.1C456.996 66.1 450.796 63.5 445.996 58.2C441.196 53 438.796 46.4 438.796 38.5C438.796 30.7 441.196 24.1 445.996 18.8C450.796 13.6 456.996 10.9 464.596 10.9C472.196 10.9 478.296 13.6 483.096 18.8C487.896 24.1 490.296 30.7 490.296 38.5C490.296 46.4 487.896 53 483.096 58.2C478.296 63.5 472.196 66.1 464.596 66.1Z" fill="url(#paint2_linear_761_201)"/>
<path d="M513.104 76H551.204V65.9H524.604V0.999994H513.104V76Z" fill="url(#paint3_linear_761_201)"/>
</g>
<defs>
<linearGradient id="paint0_linear_761_201" x1="275" y1="-11" x2="275" y2="107" gradientUnits="userSpaceOnUse">
<stop stop-color="#60A9F6"/>
<stop offset="1" stop-color="#80D672" stop-opacity="0"/>
</linearGradient>
<linearGradient id="paint1_linear_761_201" x1="382.168" y1="99.9528" x2="382.805" y2="-24.4391" gradientUnits="userSpaceOnUse">
<stop stop-color="#60A9F6"/>
<stop offset="1" stop-color="#80D672" stop-opacity="0.5"/>
</linearGradient>
<linearGradient id="paint2_linear_761_201" x1="439.718" y1="-11" x2="512.501" y2="108.92" gradientUnits="userSpaceOnUse">
<stop stop-color="#60A9F6"/>
<stop offset="1" stop-color="#80D672" stop-opacity="0.5"/>
</linearGradient>
<linearGradient id="paint3_linear_761_201" x1="573.721" y1="103.067" x2="518.261" y2="-2.85414" gradientUnits="userSpaceOnUse">
<stop stop-color="#60A9F6"/>
<stop offset="1" stop-color="#80D672" stop-opacity="0.5"/>
</linearGradient>
<clipPath id="clip0_761_201">
<rect width="552" height="79" fill="white"/>
</clipPath>
</defs>
</svg>
