<svg width="133" height="20" viewBox="0 0 133 20" fill="none" xmlns="http://www.w3.org/2000/svg">
<path d="M7.65716 19.24C6.20116 19.24 4.84116 18.92 3.57716 18.28C2.32916 17.64 1.36116 16.792 0.673156 15.736L2.66516 13.744C3.03316 14.624 3.68116 15.328 4.60916 15.856C5.55316 16.368 6.60116 16.624 7.75316 16.624C8.79316 16.624 9.61716 16.424 10.2252 16.024C10.8492 15.624 11.1692 15.016 11.1852 14.2C11.1852 13.688 11.0812 13.232 10.8732 12.832C10.6652 12.432 10.3292 12.08 9.86516 11.776C9.40116 11.456 8.96916 11.208 8.56916 11.032C8.18516 10.856 7.64116 10.632 6.93716 10.36C6.42516 10.168 6.05716 10.032 5.83316 9.952C5.62516 9.856 5.28916 9.704 4.82516 9.496C4.37716 9.288 4.04116 9.112 3.81716 8.968C3.60916 8.808 3.34516 8.6 3.02516 8.344C2.70516 8.072 2.47316 7.808 2.32916 7.552C2.18516 7.296 2.04916 6.992 1.92116 6.64C1.80916 6.272 1.75316 5.888 1.75316 5.488C1.75316 4.032 2.28916 2.88 3.36116 2.032C4.44916 1.184 5.82516 0.759999 7.48916 0.759999C10.3532 0.759999 12.5372 1.632 14.0412 3.376L12.1932 5.224C11.2652 3.816 9.72116 3.112 7.56116 3.112C6.66516 3.112 5.93716 3.304 5.37716 3.688C4.83316 4.056 4.56116 4.584 4.56116 5.272C4.56116 5.56 4.63316 5.84 4.77716 6.112C4.92116 6.368 5.08916 6.584 5.28116 6.76C5.47316 6.936 5.75316 7.128 6.12116 7.336C6.50516 7.544 6.83316 7.704 7.10516 7.816C7.37716 7.928 7.76116 8.088 8.25716 8.296C8.97716 8.584 9.52116 8.816 9.88916 8.992C10.2732 9.152 10.7692 9.416 11.3772 9.784C11.9852 10.136 12.4412 10.488 12.7452 10.84C13.0652 11.192 13.3452 11.648 13.5852 12.208C13.8412 12.768 13.9692 13.384 13.9692 14.056C13.9692 15.784 13.3852 17.08 12.2172 17.944C11.0652 18.808 9.54516 19.24 7.65716 19.24ZM26.9944 3.424H19.5064V8.776H25.9864V11.224H19.5064V16.576H26.9944V19H16.7464V0.999999H26.9944V3.424ZM29.7542 19V0.999999H32.5142V16.576H38.8982V19H29.7542ZM51.9319 3.424H44.4439V8.776H50.9239V11.224H44.4439V16.576H51.9319V19H41.6839V0.999999H51.9319V3.424ZM62.9717 19.24C60.4437 19.24 58.3477 18.352 56.6837 16.576C55.0197 14.784 54.1877 12.592 54.1877 10C54.1877 7.408 55.0197 5.224 56.6837 3.448C58.3477 1.656 60.4437 0.759999 62.9717 0.759999C64.6677 0.759999 66.2037 1.256 67.5797 2.248V5.536C66.3157 4.096 64.7797 3.376 62.9717 3.376C61.1477 3.376 59.6597 4.008 58.5077 5.272C57.3557 6.536 56.7797 8.112 56.7797 10C56.7797 11.888 57.3557 13.464 58.5077 14.728C59.6597 15.992 61.1477 16.624 62.9717 16.624C64.7957 16.624 66.3317 15.904 67.5797 14.464V17.752C66.2037 18.744 64.6677 19.24 62.9717 19.24ZM81.9388 0.999999V3.424H77.1388V19H74.4028V3.424H69.6028V0.999999H81.9388ZM91.4014 19.24C88.8734 19.24 86.7774 18.352 85.1134 16.576C83.4494 14.784 82.6174 12.592 82.6174 10C82.6174 7.408 83.4494 5.224 85.1134 3.448C86.7774 1.656 88.8734 0.759999 91.4014 0.759999C93.9134 0.759999 96.0014 1.656 97.6654 3.448C99.3454 5.224 100.185 7.408 100.185 10C100.185 12.592 99.3454 14.784 97.6654 16.576C96.0014 18.352 93.9134 19.24 91.4014 19.24ZM86.9374 14.728C88.0894 15.992 89.5774 16.624 91.4014 16.624C93.2254 16.624 94.7054 15.992 95.8414 14.728C96.9934 13.464 97.5694 11.888 97.5694 10C97.5694 8.112 96.9934 6.536 95.8414 5.272C94.7054 4.008 93.2254 3.376 91.4014 3.376C89.5774 3.376 88.0894 4.008 86.9374 5.272C85.7854 6.536 85.2094 8.112 85.2094 10C85.2094 11.888 85.7854 13.464 86.9374 14.728ZM111.323 19.24C108.795 19.24 106.699 18.352 105.035 16.576C103.371 14.784 102.539 12.592 102.539 10C102.539 7.408 103.371 5.224 105.035 3.448C106.699 1.656 108.795 0.759999 111.323 0.759999C113.835 0.759999 115.923 1.656 117.587 3.448C119.267 5.224 120.107 7.408 120.107 10C120.107 12.592 119.267 14.784 117.587 16.576C115.923 18.352 113.835 19.24 111.323 19.24ZM106.859 14.728C108.011 15.992 109.499 16.624 111.323 16.624C113.147 16.624 114.627 15.992 115.763 14.728C116.915 13.464 117.491 11.888 117.491 10C117.491 8.112 116.915 6.536 115.763 5.272C114.627 4.008 113.147 3.376 111.323 3.376C109.499 3.376 108.011 4.008 106.859 5.272C105.707 6.536 105.131 8.112 105.131 10C105.131 11.888 105.707 13.464 106.859 14.728ZM122.965 19V0.999999H125.725V16.576H132.109V19H122.965Z" fill="white"/>
</svg>
