<svg width="133" height="20" viewBox="0 0 133 20" fill="none" xmlns="http://www.w3.org/2000/svg">
<path d="M7.65716 19.24C9.52916 19.24 11.0652 18.808 12.2172 17.944C13.3692 17.08 13.9692 15.784 13.9692 14.056C13.9692 13.384 13.8252 12.784 13.5852 12.208C13.3452 11.656 13.0572 11.2 12.7452 10.84C12.4332 10.504 11.9772 10.144 11.3772 9.784C10.7532 9.424 10.2732 9.16 9.88916 8.992C9.50516 8.824 8.97716 8.584 8.25716 8.296C7.75316 8.104 7.36916 7.936 7.10516 7.816C6.81716 7.72 6.50516 7.552 6.12116 7.336C5.73716 7.144 5.47316 6.952 5.28116 6.76C5.08916 6.592 4.92116 6.376 4.77716 6.112C4.63316 5.848 4.56116 5.56 4.56116 5.272C4.56116 4.6 4.82516 4.072 5.37716 3.688C5.92916 3.304 6.64916 3.112 7.56116 3.112C9.72116 3.112 11.2572 3.832 12.1932 5.224L14.0412 3.376C12.5292 1.648 10.3452 0.759999 7.48916 0.759999C5.80916 0.759999 4.44116 1.192 3.36116 2.032C2.28116 2.896 1.75316 4.048 1.75316 5.488C1.75316 5.896 1.80116 6.28 1.92116 6.64C2.04116 7 2.18516 7.312 2.32916 7.552C2.47316 7.816 2.68916 8.08 3.02516 8.344C3.33716 8.608 3.60116 8.824 3.81716 8.968C4.03316 9.112 4.36916 9.304 4.82516 9.496C5.28116 9.712 5.61716 9.856 5.83316 9.952C6.04916 10.048 6.40916 10.168 6.93716 10.36C7.63316 10.648 8.18516 10.864 8.56916 11.032C8.95316 11.224 9.38516 11.464 9.86516 11.776C10.3212 12.088 10.6572 12.448 10.8732 12.832C11.0652 13.24 11.1852 13.696 11.1852 14.2C11.1612 15.016 10.8492 15.64 10.2252 16.024C9.60116 16.432 8.78516 16.624 7.75316 16.624C6.60116 16.624 5.54516 16.384 4.60916 15.856C3.67316 15.328 3.02516 14.632 2.66516 13.744L0.673156 15.736C1.34516 16.792 2.32916 17.656 3.57716 18.28C4.82516 18.928 6.19316 19.24 7.65716 19.24ZM26.9944 3.424V0.999999H16.7464V19H26.9944V16.576H19.5064V11.224H25.9864V8.776H19.5064V3.424H26.9944ZM29.7542 19H38.8982V16.576H32.5142V0.999999H29.7542V19ZM51.9319 3.424V0.999999H41.6839V19H51.9319V16.576H44.4439V11.224H50.9239V8.776H44.4439V3.424H51.9319ZM62.9717 19.24C64.6517 19.24 66.1877 18.76 67.5797 17.752V14.464C66.3317 15.904 64.7957 16.624 62.9717 16.624C61.1477 16.624 59.6597 16 58.5077 14.728C57.3557 13.48 56.7797 11.896 56.7797 10C56.7797 8.128 57.3557 6.544 58.5077 5.272C59.6597 4.024 61.1477 3.376 62.9717 3.376C64.7717 3.376 66.3077 4.096 67.5797 5.536V2.248C66.1877 1.264 64.6517 0.759999 62.9717 0.759999C60.4277 0.759999 58.3397 1.672 56.6837 3.448C55.0037 5.224 54.1877 7.408 54.1877 10C54.1877 12.592 55.0037 14.8 56.6837 16.576C58.3397 18.352 60.4277 19.24 62.9717 19.24ZM81.9388 0.999999H69.6028V3.424H74.4028V19H77.1388V3.424H81.9388V0.999999ZM91.4014 19.24C93.8974 19.24 95.9854 18.352 97.6654 16.576C99.3454 14.8 100.185 12.592 100.185 10C100.185 7.408 99.3454 5.224 97.6654 3.448C95.9854 1.672 93.8974 0.759999 91.4014 0.759999C88.8574 0.759999 86.7694 1.672 85.1134 3.448C83.4334 5.224 82.6174 7.408 82.6174 10C82.6174 12.592 83.4334 14.8 85.1134 16.576C86.7694 18.352 88.8574 19.24 91.4014 19.24ZM91.4014 16.624C89.5774 16.624 88.0894 16 86.9374 14.728C85.7854 13.48 85.2094 11.896 85.2094 10C85.2094 8.128 85.7854 6.544 86.9374 5.272C88.0894 4.024 89.5774 3.376 91.4014 3.376C93.2254 3.376 94.6894 4.024 95.8414 5.272C96.9934 6.544 97.5694 8.128 97.5694 10C97.5694 11.896 96.9934 13.48 95.8414 14.728C94.6894 16 93.2254 16.624 91.4014 16.624ZM111.323 19.24C113.819 19.24 115.907 18.352 117.587 16.576C119.267 14.8 120.107 12.592 120.107 10C120.107 7.408 119.267 5.224 117.587 3.448C115.907 1.672 113.819 0.759999 111.323 0.759999C108.779 0.759999 106.691 1.672 105.035 3.448C103.355 5.224 102.539 7.408 102.539 10C102.539 12.592 103.355 14.8 105.035 16.576C106.691 18.352 108.779 19.24 111.323 19.24ZM111.323 16.624C109.499 16.624 108.011 16 106.859 14.728C105.707 13.48 105.131 11.896 105.131 10C105.131 8.128 105.707 6.544 106.859 5.272C108.011 4.024 109.499 3.376 111.323 3.376C113.147 3.376 114.611 4.024 115.763 5.272C116.915 6.544 117.491 8.128 117.491 10C117.491 11.896 116.915 13.48 115.763 14.728C114.611 16 113.147 16.624 111.323 16.624ZM122.965 19H132.109V16.576H125.725V0.999999H122.965V19Z" fill="#333333"/>
</svg>
