<svg width="35" height="35" viewBox="0 0 35 35" fill="none" xmlns="http://www.w3.org/2000/svg">
<g clip-path="url(#clip0_589_711)">
<path fill-rule="evenodd" clip-rule="evenodd" d="M12.8326 0C10.8978 0.00142712 9.332 1.5684 9.33343 3.49929C9.332 5.43017 10.8993 6.99715 12.834 6.99857H16.3346V3.50071C16.336 1.56983 14.7688 0.00285423 12.8326 0C12.834 0 12.834 0 12.8326 0M12.8326 9.33333H3.50058C1.56582 9.33476 -0.00142606 10.9017 3.90794e-06 12.8326C-0.00285604 14.7635 1.56439 16.3305 3.49915 16.3333H12.8326C14.7673 16.3319 16.3346 14.7649 16.3331 12.834C16.3346 10.9017 14.7673 9.33476 12.8326 9.33333Z" fill="#36C5F0"/>
<path fill-rule="evenodd" clip-rule="evenodd" d="M35.0001 12.8326C35.0016 10.9017 33.4343 9.33476 31.4996 9.33333C29.5648 9.33476 27.9976 10.9017 27.999 12.8326V16.3333H31.4996C33.4343 16.3319 35.0016 14.7649 35.0001 12.8326ZM25.6667 12.8326V3.49929C25.6681 1.56983 24.1023 0.00285423 22.1676 0C20.2328 0.00142712 18.6656 1.5684 18.667 3.49929V12.8326C18.6641 14.7635 20.2314 16.3305 22.1661 16.3333C24.1009 16.3319 25.6681 14.7649 25.6667 12.8326Z" fill="#2EB67D"/>
<path fill-rule="evenodd" clip-rule="evenodd" d="M22.1661 34.9998C24.1009 34.9984 25.6681 33.4314 25.6667 31.5005C25.6681 29.5696 24.1009 28.0027 22.1661 28.0012H18.6655V31.5005C18.6641 33.43 20.2313 34.9969 22.1661 34.9998ZM22.1661 25.665H31.4995C33.4343 25.6636 35.0015 24.0966 35.0001 22.1658C35.003 20.2349 33.4357 18.6679 31.501 18.665H22.1675C20.2328 18.6665 18.6655 20.2334 18.667 22.1643C18.6655 24.0966 20.2313 25.6636 22.1661 25.665Z" fill="#ECB22E"/>
<path fill-rule="evenodd" clip-rule="evenodd" d="M9.77761e-07 22.1658C-0.00142899 24.0967 1.56582 25.6637 3.50057 25.6651C5.43532 25.6637 7.00257 24.0967 7.00114 22.1658V18.6665H3.50057C1.56582 18.6679 -0.00142899 20.2349 9.77761e-07 22.1658ZM9.33343 22.1658V31.4991C9.33057 33.43 10.8978 34.997 12.8326 34.9998C14.7673 34.9984 16.3346 33.4314 16.3331 31.5006V22.1686C16.336 20.2378 14.7688 18.6708 12.834 18.6679C10.8978 18.6679 9.332 20.2349 9.33343 22.1658C9.33343 22.1658 9.33343 22.1672 9.33343 22.1658Z" fill="#E01E5A"/>
</g>
<defs>
<clipPath id="clip0_589_711">
<rect width="35" height="35" fill="white"/>
</clipPath>
</defs>
</svg>
