<svg width="400" height="400" viewBox="0 0 400 400" fill="none" xmlns="http://www.w3.org/2000/svg">
<path d="M135.32 293.6C119.893 293.6 105.247 290.307 91.38 283.72C77.6867 277.133 66.68 268.38 58.36 257.46L85.4 230.68C96.84 248.36 113.913 257.2 136.62 257.2C145.98 257.2 153.433 255.467 158.98 252C164.7 248.533 167.647 243.247 167.82 236.14C167.82 232.673 166.867 229.38 164.96 226.26C163.227 223.14 161.233 220.627 158.98 218.72C156.9 216.64 153.433 214.387 148.58 211.96C143.727 209.36 139.827 207.54 136.88 206.5C134.107 205.287 129.6 203.467 123.36 201.04C116.6 198.44 111.227 196.273 107.24 194.54C103.253 192.633 98.4867 190.033 92.94 186.74C87.3933 183.447 83.06 180.153 79.94 176.86C76.9933 173.393 74.3933 169.147 72.14 164.12C69.8867 158.92 68.76 153.287 68.76 147.22C68.76 131.1 74.9133 118.1 87.22 108.22C99.7 98.34 115.473 93.4 134.54 93.4C164.527 93.4 188.36 102.847 206.04 121.74L180.56 146.44C168.6 132.92 153.607 126.16 135.58 126.16C127.78 126.16 121.367 127.98 116.34 131.62C111.487 135.087 109.06 139.767 109.06 145.66C109.06 148.78 109.927 151.64 111.66 154.24C113.393 156.84 116.253 159.353 120.24 161.78C124.4 164.207 128.04 166.113 131.16 167.5C134.453 168.887 139.307 170.88 145.72 173.48C152.133 176.08 156.987 178.073 160.28 179.46C163.573 180.847 168.08 183.013 173.8 185.96C179.693 188.907 184.2 191.853 187.32 194.8C190.613 197.573 193.993 201.04 197.46 205.2C201.1 209.187 203.7 213.78 205.26 218.98C206.82 224.007 207.6 229.553 207.6 235.62C207.6 254.513 200.84 268.9 187.32 278.78C173.8 288.66 156.467 293.6 135.32 293.6Z" fill="#333333"/>
<path d="M318.82 112V146.06H268.9V307H230.16V146.06H179.98V112H318.82Z" fill="url(#paint0_linear_1137_715)"/>
<path d="M324.12 309.6C318.4 309.6 313.373 307.52 309.04 303.36C304.88 299.027 302.8 294 302.8 288.28C302.8 282.387 304.88 277.36 309.04 273.2C313.373 268.867 318.4 266.7 324.12 266.7C330.013 266.7 335.04 268.867 339.2 273.2C343.533 277.36 345.7 282.387 345.7 288.28C345.7 294 343.533 299.027 339.2 303.36C335.04 307.52 330.013 309.6 324.12 309.6Z" fill="url(#paint1_linear_1137_715)"/>
<defs>
<linearGradient id="paint0_linear_1137_715" x1="142.074" y1="258.6" x2="320.836" y2="316.636" gradientUnits="userSpaceOnUse">
<stop stop-color="#333333"/>
<stop offset="0.166667" stop-color="#3F6E9E"/>
<stop offset="0.421875" stop-color="#78BEE1"/>
<stop offset="0.598958" stop-color="#96D9C5"/>
</linearGradient>
<linearGradient id="paint1_linear_1137_715" x1="180" y1="111" x2="378.823" y2="179.152" gradientUnits="userSpaceOnUse">
<stop stop-color="#78BEE1"/>
<stop offset="0.598958" stop-color="#96D9C5"/>
</linearGradient>
</defs>
</svg>
