<svg width="48" height="50" viewBox="0 0 48 50" fill="none" xmlns="http://www.w3.org/2000/svg">
<path d="M8.27165 8.74096C9.82003 10.0032 10.4312 9.92175 13.3243 9.71817L40.8693 8.04877C41.4397 8.04877 40.9508 7.47873 40.7878 7.35658L36.2241 4.05851C35.3277 3.36632 34.1868 2.5927 31.9457 2.79628L5.25637 4.7507C4.27844 4.83213 4.0747 5.32074 4.48217 5.72791L8.27165 8.74096ZM9.94228 15.1742L9.94228 44.1647C9.94228 45.712 10.7165 46.3227 12.4686 46.2006L42.7436 44.4497C44.4958 44.3683 44.6995 43.2689 44.6995 42.0067V13.2198C44.6995 11.9576 44.2105 11.2654 43.1511 11.3876L11.4907 13.2198C10.309 13.3013 9.94228 13.912 9.94228 15.1742ZM39.8099 16.7215C40.0136 17.6173 39.8098 18.4723 38.9134 18.5538L37.4465 18.8388V40.2152C36.1834 40.9074 35.0017 41.2738 34.0238 41.2738C32.4754 41.2738 32.0679 40.7852 30.927 39.3194L21.4329 24.3763V38.8715L24.4482 39.5637C24.4482 39.5637 24.4482 41.3145 22.0034 41.3145L15.2801 41.7217C15.0764 41.3145 15.2801 40.378 15.9728 40.1745L17.725 39.6859V20.5489L15.2801 20.3453C15.0764 19.4495 15.5654 18.1873 16.9508 18.1059L24.163 17.5765L34.1053 32.764V19.3274L31.5789 19.0424C31.3752 17.9837 32.1494 17.2101 33.1273 17.0879L39.8099 16.7215ZM3.01528 2.14481L30.764 0.108964C34.1868 -0.176055 35.0424 0.0275304 37.202 1.57478L46.0441 7.80447C47.511 8.86311 48 9.14813 48 10.3289V44.4497C48 46.6077 47.2258 47.87 44.4958 48.0328L12.2649 49.9873C10.2275 50.0687 9.24958 49.7837 8.19015 48.44L1.67063 39.9709C0.488964 38.4236 0 37.2428 0 35.8992L0 5.52432C0 3.77349 0.774193 2.30768 3.01528 2.14481Z" fill="black"/>
</svg>
